<svg xmlns="http://www.w3.org/2000/svg" viewBox="0 0 270.1 567.7"><g fill="#f2890f"><path d="M40.5 100.5c-4.7 10.7-17.2 15.5-27.9 10.8S-2.9 94.2 1.8 83.5C24.2 32.9 74.6 0 129.9 0 207.2 0 270 62.8 270 140.1c0 57.2-34.8 108.6-87.9 130-19.4 7.8-31.1 25.3-31.1 46.1l-.1 20.3c0 11.6-9.4 21.1-21.1 21.1s-21.1-9.4-21.1-21.1v-20.3c-.2-38 22.4-71.1 57.6-85.3 37-14.9 61.2-50.9 61.2-90.8 0-54.1-43.6-97.8-97.8-97.8-38.6.1-73.5 22.7-89.2 58.2z"/><path d="M129.9 392c17.2 0 31.1 13.9 31.1 31.1s-13.9 31.1-31.1 31.1-31.1-13.9-31.1-31.1 14-31.1 31.1-31.1z" fill-rule="evenodd" clip-rule="evenodd"/></g></svg>